<svg width="32" height="32" viewBox="0 0 32 32" fill="none" xmlns="http://www.w3.org/2000/svg">
  <!-- MetaForge Favicon - Simplified flame + anvil icon -->

  <!-- Flame -->
  <path d="M16 4 C 17.5 6.5, 19 8, 20 12 C 21 16, 19.5 18, 18 19.5 C 18.5 17.5, 18.5 16, 18 14.5 C 17.5 13, 16 12, 15 10.5 C 14 9, 14 7.5, 15 6 C 15.5 5, 15.75 4.5, 16 4 Z" fill="#E67E22"/>

  <!-- Anvil -->
  <rect x="8" y="20" width="16" height="2.5" rx="0.8" fill="#2C3E50"/>
  <path d="M 10 22.5 L 10 26 L 22 26 L 22 22.5 Z" fill="#2C3E50"/>
  <rect x="11" y="18" width="10" height="2" rx="0.5" fill="#34495E"/>

  <!-- Accent -->
  <ellipse cx="16" cy="18.5" rx="3" ry="0.8" fill="#E67E22" opacity="0.4"/>
</svg>
