<svg width="40" height="40" viewBox="0 0 40 40" fill="none" xmlns="http://www.w3.org/2000/svg">
  <!-- MetaForge Logo - Anvil with Flame -->

  <!-- Flame -->
  <path d="M20 5 C 22 8, 24 10, 25 15 C 26 20, 24 23, 22 25 C 23 22, 23 20, 22 18 C 21 16, 19 15, 18 13 C 17 11, 17 9, 18 7 C 19 5, 19.5 4, 20 5 Z" fill="#E67E22"/>
  <path d="M20 8 C 21 10, 22 12, 22.5 15 C 23 17, 22 19, 21 20 C 21.5 18, 21.5 17, 21 16 C 20.5 15, 19.5 14, 19 13 C 18.5 12, 18.5 11, 19 10 C 19.5 9, 19.75 8.5, 20 8 Z" fill="#F39C12"/>

  <!-- Anvil Base -->
  <rect x="10" y="25" width="20" height="3" rx="1" fill="#2C3E50"/>

  <!-- Anvil Body -->
  <path d="M 12 28 L 12 32 L 28 32 L 28 28 Z" fill="#2C3E50"/>

  <!-- Anvil Horn -->
  <path d="M 26 28 L 32 28 L 32 30 L 28 30 Z" fill="#2C3E50"/>

  <!-- Anvil Top -->
  <rect x="14" y="22" width="12" height="3" rx="0.5" fill="#34495E"/>

  <!-- Highlight -->
  <ellipse cx="20" cy="23" rx="4" ry="1" fill="#E67E22" opacity="0.3"/>
</svg>
